<svg xmlns="http://www.w3.org/2000/svg" viewBox="0 0 500 500"><g id="freepik--background-complete--inject-362"><polygon points="263.06 232.83 263.05 232.84 263.09 232.84 263.06 232.83" style="fill:#f5f5f5"></polygon><polygon points="262.97 232.8 263.04 232.83 263 232.78 262.97 232.8" style="fill:#f5f5f5"></polygon><polygon points="262.9 232.72 262.83 232.76 262.96 232.8 262.9 232.72" style="fill:#f5f5f5"></polygon><polygon points="262.79 232.67 262.81 232.66 262.79 232.64 262.79 232.67" style="fill:#f5f5f5"></polygon><polygon points="262.82 232.49 262.82 232.5 262.84 232.52 262.82 232.49" style="fill:#f5f5f5"></polygon><polygon points="263.06 232.75 263.04 232.76 263.05 232.78 263.06 232.75" style="fill:#f5f5f5"></polygon><polygon points="262.73 232.68 262.74 232.61 262.42 232.39 262.67 232.7 262.73 232.68" style="fill:#f5f5f5"></polygon><polygon points="262.76 232.62 262.73 232.68 262.79 232.67 262.76 232.62" style="fill:#f5f5f5"></polygon><polygon points="263.04 232.71 262.99 232.71 263.02 232.74 263.04 232.71" style="fill:#f5f5f5"></polygon><polygon points="262.98 232.77 262.96 232.76 262.97 232.79 262.98 232.77" style="fill:#f5f5f5"></polygon><path d="M299.9,16.19,281.23,125l.44.08L263.26,231.61l47.35-97.24.22.11,47.42-97.62a233.92,233.92,0,0,0-34.61-14.34A236.62,236.62,0,0,0,299.9,16.19Z" style="fill:#f5f5f5"></path><path d="M448.74,119.52A233.12,233.12,0,0,0,409.1,72.14l-72.67,79.78.19.18-73.41,80.43Z" style="fill:#f5f5f5"></path><path d="M172.77,171.37h0l89.42,60.87-.38-.13.86.59h.13v0h0l0,0,.07,0,.06.08-.13,0,.05.08.06,0,0,0H263v0l0,0h0l-.07,0,.34.3-.26-.31,89.95,61.21-.14.2,99.77,68.06a233.89,233.89,0,0,0,20.88-46.53c1.5-4.63,2.82-9.26,4-13.91L366.74,266.05l-.06.18L263.13,232.86h0l0,0,0-.08h.5l-.45.12,1,0-.45-.14,221.14,5.49A232.4,232.4,0,0,0,474.69,176l-211,56.75-.35-.11.2-.13-.32.09h0v0h0l.28-.52-.33.35,0,.15-.16.05v-.1l-.09,0,.07-.14-.05-.41-.08.48,0,.05h0v0l-.16-.2.06.15-.34-.11L116.78,54.45a232.1,232.1,0,0,0-48.21,46Zm90.29,61.46h0Zm-.09,0,0,0,0,.05Zm.09-.05v0Zm0,0,0,0,0,0Zm-.06.06v0Zm-.19-.1v0l0,0Zm0-.18,0,0,0,0Zm-.06.13,0,0h-.06Zm0,0v.07l-.06,0-.25-.31Z" style="fill:#f5f5f5"></path><path d="M220.25,132.2h0l42.48,100.13L250.22,124.21h0L237.09,11.63a232.64,232.64,0,0,0-62.57,12.84Z" style="fill:#f5f5f5"></path><path d="M332,317.23l-.09.08-68.74-84,42.45,100-.22.09,50.44,119.19a233.9,233.9,0,0,0,55.32-38.4Z" style="fill:#f5f5f5"></path><polygon points="262.95 233.04 262.94 233.03 262.95 233.05 262.95 233.04" style="fill:#f5f5f5"></polygon><polygon points="262.77 232.77 262.75 232.79 262.72 232.75 262.7 232.84 262.71 232.83 262.71 232.84 262.78 232.84 262.76 232.8 262.79 232.78 262.81 232.79 262.81 232.77 262.83 232.76 262.72 232.73 262.77 232.77" style="fill:#f5f5f5"></polygon><polygon points="262.66 232.84 262.7 232.74 262.68 232.72 262.2 232.82 262.66 232.84" style="fill:#f5f5f5"></polygon><path d="M262.31,233.08,157.53,261.26c0-.13-.07-.26-.1-.39L25,296.34a233.77,233.77,0,0,0,25.92,65.29l136.66-83Z" style="fill:#f5f5f5"></path><path d="M153.88,230l108.77,2.7L35,159.36c-1.67,4.29-3.25,8.66-4.68,13.1a233.31,233.31,0,0,0-10.68,54.09L153.87,230Z" style="fill:#f5f5f5"></path><path d="M262.35,233.47,95.26,416.53a231.18,231.18,0,0,0,58.92,39Z" style="fill:#f5f5f5"></path><polygon points="263.03 232.88 263 232.89 263.01 232.93 263.03 232.88" style="fill:#f5f5f5"></polygon><path d="M262.9,233.63,221.19,475.05a231.25,231.25,0,0,0,69.55-1.21Z" style="fill:#f5f5f5"></path><polygon points="262.65 233.14 262.51 233.95 262.86 233.24 262.83 232.95 262.65 233.14" style="fill:#f5f5f5"></polygon><polygon points="262.98 232.9 262.96 232.9 262.98 232.91 262.98 232.9" style="fill:#f5f5f5"></polygon></g><g id="freepik--Floor--inject-362"><path d="M477.08,477c0,.14-101.67.26-227.07.26S22.92,477.12,22.92,477s101.65-.26,227.09-.26S477.08,476.84,477.08,477Z" style="fill:#263238"></path></g><g id="freepik--Character--inject-362"><path d="M331.92,131l3.38,41.9c.89,6.72-1.44,12.27-8.08,13.64h0a12.92,12.92,0,0,1-15.41-10.88c-.54-3.92-1-7.13-1-7.13s-10.14.5-12.29-9.3c-1.24-5.66-2.91-18.74-4.1-28.78A13.15,13.15,0,0,1,304.87,116l5.94-1.22A18.56,18.56,0,0,1,331.92,131Z" style="fill:#ffbe9d"></path><path d="M310.85,168.49a24.2,24.2,0,0,0,12-6.41s-1.69,7.8-11.68,8.93Z" style="fill:#eb996e"></path><path d="M330.13,139c.15-.11,6.34-3.39,7.51,3.37s-5.86,6.54-5.91,6.35S330.13,139,330.13,139Z" style="fill:#ffbe9d"></path><path d="M333.36,145.82s.13.06.34.12a1.21,1.21,0,0,0,.89-.14,3,3,0,0,0,.89-2.84,3.94,3.94,0,0,0-.62-1.63,1.37,1.37,0,0,0-1-.75.61.61,0,0,0-.64.44c-.06.2,0,.33,0,.35s-.16-.09-.15-.38a.72.72,0,0,1,.19-.47.86.86,0,0,1,.62-.28,1.66,1.66,0,0,1,1.41.83,4.08,4.08,0,0,1,.74,1.82,3.09,3.09,0,0,1-1.22,3.21,1.26,1.26,0,0,1-1.11,0C333.4,146,333.33,145.84,333.36,145.82Z" style="fill:#eb996e"></path><path d="M333.82,138a3.59,3.59,0,0,0-2.89,2.32c-.24,1-.11,2.16-.35,3.21s-1,2.12-2.12,2.09a2.14,2.14,0,0,1-1.72-1.25,5.84,5.84,0,0,1-.46-2.16c-.25-3.22-.23-6.47-.76-9.65a16.46,16.46,0,0,0-3.86-8.73c-2.21-2.35-5.67-3.7-8.77-2.79-2.05.59-3.74,2.08-5.75,2.79a8.39,8.39,0,0,1-7.29-.87,15.25,15.25,0,0,0-1.46-.65,3.86,3.86,0,0,1,.28-2.22c3.33-4.66,10.52-7.24,16.24-7a20,20,0,0,1,15,7.65c3.38,4.61,4.15,11.84,3.92,17.26" style="fill:#263238"></path><path d="M300.84,122.85c3.74-.61,11.11-.66,14.51,1,.41.2.87.58.72,1s-.52.4-.86.46a52.09,52.09,0,0,0-9.78,3.57,18.13,18.13,0,0,1-6.36,2.31,6.55,6.55,0,0,1-6.05-2.36l-.87.54C293.51,125.86,297.09,123.46,300.84,122.85Z" style="fill:#263238"></path><path d="M294,128.92a12.81,12.81,0,0,1,6.63-4.81c8.35-2.48,22.82-2.73,33.15,10.39a34.6,34.6,0,0,0-.07-8.09c-.41-2-4.06-13.65-17.07-14.87C316.68,111.54,296.78,108.3,294,128.92Z" style="fill:#455a64"></path><g style="opacity:0.2"><path d="M294,128.92a12.23,12.23,0,0,1,7.43-5.41c7.53-1.9,22.62-1.38,32.35,11a34.6,34.6,0,0,0-.07-8.09c-.41-2-4.06-13.65-17.07-14.87C316.68,111.54,296.78,108.3,294,128.92Z"></path></g><path d="M332.25,132.65c-4.94-5.41-11.31-8.52-18-11s-17.23-4.12-24.35-4.52a15,15,0,0,0-6.34.62,5.71,5.71,0,0,0-3.83,4.72c-.12,2.68,5.21,5.67,7.65,6.78a70.17,70.17,0,0,0,7.24,2.48s-1-4.72,6.32-7.24C311,121.06,332.61,132.85,332.25,132.65Z" style="fill:#455a64"></path><path d="M314.73,117a37.62,37.62,0,0,0-7.44-1.29,35.78,35.78,0,0,0-7.51.77,6.93,6.93,0,0,1,2.12-.75,20,20,0,0,1,10.77.38A7,7,0,0,1,314.73,117Z" style="fill:#fff"></path><path d="M299.07,144a1.47,1.47,0,0,0,1.57,1.33,1.4,1.4,0,0,0,1.37-1.48,1.47,1.47,0,0,0-1.57-1.33A1.41,1.41,0,0,0,299.07,144Z" style="fill:#263238"></path><path d="M297.33,140.29c.2.17,1.23-.77,2.81-.93s2.82.5,3,.29-.15-.42-.69-.74a4.08,4.08,0,0,0-2.41-.47,3.86,3.86,0,0,0-2.2,1C297.36,139.85,297.23,140.21,297.33,140.29Z" style="fill:#263238"></path><path d="M314.18,142.71a1.48,1.48,0,0,0,1.57,1.33,1.41,1.41,0,0,0,1.37-1.48,1.46,1.46,0,0,0-1.57-1.33A1.41,1.41,0,0,0,314.18,142.71Z" style="fill:#263238"></path><path d="M312.88,138.94c.2.17,1.23-.77,2.81-.93s2.82.5,3,.29-.15-.42-.69-.73a4.07,4.07,0,0,0-2.41-.48,3.86,3.86,0,0,0-2.2,1C312.91,138.5,312.78,138.86,312.88,138.94Z" style="fill:#263238"></path><path d="M308.39,151.25a10.85,10.85,0,0,0-2.61-.19c-.41,0-.8,0-.9-.3a2.11,2.11,0,0,1,.15-1.23l.86-3.19c1.2-4.55,2-8.27,1.83-8.32s-1.3,3.6-2.49,8.15c-.29,1.12-.56,2.19-.82,3.21a2.36,2.36,0,0,0,0,1.6,1,1,0,0,0,.73.52,2.73,2.73,0,0,0,.69,0A10.25,10.25,0,0,0,308.39,151.25Z" style="fill:#263238"></path><path d="M308.8,154.74A4,4,0,0,1,312,153c.83-.06.9-.22,1.42.45A4.65,4.65,0,0,1,314,157c-.49.92-2,1-2.88.9s-.91-.13-1.56-.94a11.48,11.48,0,0,1-.59-1,1.6,1.6,0,0,1-.17-1.14" style="fill:#eb996e"></path><path d="M309.72,136.81c.41.21,1.42-1,2.92-2.15s2.95-1.79,2.86-2.24c-.05-.21-.51-.32-1.24-.21a6.35,6.35,0,0,0-4.41,3.35C309.54,136.23,309.53,136.71,309.72,136.81Z" style="fill:#263238"></path><path d="M298.66,136.18c.11.44,1.26.54,2.47,1s2.13,1.2,2.52,1c.17-.12.16-.52-.15-1a3.76,3.76,0,0,0-1.77-1.42,3.7,3.7,0,0,0-2.25-.19C298.91,135.69,298.62,136,298.66,136.18Z" style="fill:#263238"></path><path d="M310.53,157.59c0,.09.68.39,1.87.43h.47a1,1,0,0,0,.57-.19,2.7,2.7,0,0,0,.84-.87,2.23,2.23,0,0,0,.12-1.34c-.08-.42-.15-.85-.23-1.29a2.12,2.12,0,0,0-.57-1.34,1.79,1.79,0,0,0-1.37-.24,6.18,6.18,0,0,0-2,.72c-1.05.61-1.49,1.23-1.44,1.27s.58-.45,1.61-.94a7,7,0,0,1,1.9-.56,1.32,1.32,0,0,1,1,.16c.23.18.29.58.37,1,.12.86.45,1.76.2,2.3a2.41,2.41,0,0,1-.65.73.64.64,0,0,1-.35.15l-.44,0C311.24,157.7,310.55,157.54,310.53,157.59Z" style="fill:#263238"></path><path d="M353.83,290.08,301.47,292s-36.17,38.82-41.27,45-3.39,11.25-3.39,11.25c1.91,10.83,36.15,81.13,36.15,81.13l21.6-9.78-23.44-70.49s57-45,58.47-45Z" style="fill:#263238"></path><path d="M289,343.44a12.18,12.18,0,0,1,1.46,3.09,11.72,11.72,0,0,1,1,3.28,12.37,12.37,0,0,1-1.46-3.1A11.71,11.71,0,0,1,289,343.44Z" style="fill:#455a64"></path><path d="M222.69,261.38a2.2,2.2,0,0,0-3.09.6c-1.57,1.78,0,2.31,0,2.31l12.25.73,5.28-2.73s3.89.32,4.73-.42,5.74-7.77,5.74-7.77l-2.53-6.23-16.65,2.77Z" style="fill:#ffbe9d"></path><path d="M217.63,252H237.8c1.14,0,2.07,2,2.07,4.46s-.93,4.45-2.07,4.45l-20.24-1.61C213.59,254.66,217.63,252,217.63,252Z" style="fill:#263238"></path><path d="M242.86,248.44s-15.41-2.86-16.54-2.6a6.15,6.15,0,0,0-2.25,1.29s-5.28,7.63-5.8,8.58a3.74,3.74,0,0,0,.43,3.55c.69.87,7.71,4.16,7.71,4.16a1.06,1.06,0,0,0,.52-1.13l3.5,1.13a4.08,4.08,0,0,0,0-2.25l2.9.95s1-.17.09-2.16-4.76-4.94-4.76-4.94l.78-1.64,3.46-.61,7.71-1.65Z" style="fill:#ffbe9d"></path><path d="M233,259.22s.09,0,.21.16a4.06,4.06,0,0,1,.46.59,2.37,2.37,0,0,1,.39,1.16,1.86,1.86,0,0,1-.67,1.49l-.08.07-.1-.05-2.88-1.19h0v0l-3.77-3a10.78,10.78,0,0,1-1.78-1.6,2.15,2.15,0,0,1-.47-1.13,3,3,0,0,1,.14-1.14,10.93,10.93,0,0,1,1.52-3.42,4.32,4.32,0,0,1,2-1.55,1.77,1.77,0,0,1,.92-.13c0,.05-.33.07-.85.31a4.44,4.44,0,0,0-1.8,1.57,11.55,11.55,0,0,0-1.37,3.34,1.89,1.89,0,0,0,.28,1.86,11.13,11.13,0,0,0,1.71,1.52l3.72,3-.05,0,2.85,1.28-.17,0a1.6,1.6,0,0,0,.59-1.21,2.36,2.36,0,0,0-.27-1.06C233.18,259.52,232.94,259.25,233,259.22Z" style="fill:#eb996e"></path><path d="M224.25,249.36a4.66,4.66,0,0,1-1.17,2.27c-.47.63-1.12,1.32-1.67,2.16a4.3,4.3,0,0,0-.8,3,4,4,0,0,0,2,2.39l2.29,1.52a13.64,13.64,0,0,1,2,1.51,13.05,13.05,0,0,1-2.23-1.22l-2.35-1.44a7.68,7.68,0,0,1-1.31-1,3.23,3.23,0,0,1-.89-1.63,4.59,4.59,0,0,1,.91-3.35,24.93,24.93,0,0,1,1.77-2.13A13.41,13.41,0,0,0,224.25,249.36Z" style="fill:#eb996e"></path><path d="M230,261s.24.19.39.69a2.46,2.46,0,0,1-.38,2.1l-.08.1-.14,0A14.83,14.83,0,0,1,226.1,262l.37-.28c0,.12.08.25.11.38a3.21,3.21,0,0,1-.06,1.66l-.08.29-.26-.15a38.63,38.63,0,0,1-4.87-3,38.49,38.49,0,0,1,5.1,2.57l-.34.14a3,3,0,0,0,0-1.41,2.58,2.58,0,0,0-.1-.33l-.24-.7.61.42a17.31,17.31,0,0,0,3.53,1.88l-.21.06a2.35,2.35,0,0,0,.47-1.81C230.1,261.28,230,261,230,261Z" style="fill:#eb996e"></path><path d="M195.67,298.08l-53.9-3.4a4.57,4.57,0,0,1-4.27-4.84h0a4.56,4.56,0,0,1,4.84-4.26l53.91,3.4a4.56,4.56,0,0,1,4.26,4.84h0A4.56,4.56,0,0,1,195.67,298.08Z" style="fill:#fafafa"></path><path d="M195.67,298.08a8.06,8.06,0,0,0,1.37-.17A4.61,4.61,0,0,0,200,295.5a4.54,4.54,0,0,0,.36-2.75,4.41,4.41,0,0,0-1.72-2.75,4.3,4.3,0,0,0-1.66-.77,17.28,17.28,0,0,0-2-.18l-4.4-.26-48.22-3a4.31,4.31,0,0,0-4.56,3.87,4.31,4.31,0,0,0,3.5,4.68c4.37.35,8.7.58,12.77.86l21.67,1.42,14.61,1,4,.29,1,.09.35.05h-.35l-1,0-4-.2L175.69,297,154,295.68c-4.09-.27-8.34-.48-12.83-.84a4.76,4.76,0,0,1-3-1.81,4.81,4.81,0,0,1,4.13-7.7l48.21,3.12,4.4.29a15.16,15.16,0,0,1,2,.21,4.73,4.73,0,0,1,1.77.83,4.64,4.64,0,0,1,1.78,2.93,4.74,4.74,0,0,1-.42,2.87,4.67,4.67,0,0,1-3.08,2.43A3.69,3.69,0,0,1,195.67,298.08Z" style="fill:#263238"></path><path d="M200.71,293.88c0,.13-13.12-.58-29.27-1.6s-29.25-2-29.24-2.09,13.11.58,29.27,1.6S200.71,293.75,200.71,293.88Z" style="fill:#263238"></path><path d="M141.87,294.68l53.9,3.41a4.55,4.55,0,0,1,4.26,4.83h0a4.55,4.55,0,0,1-4.83,4.27l-53.91-3.41A4.55,4.55,0,0,1,137,299h0A4.56,4.56,0,0,1,141.87,294.68Z" style="fill:#fafafa"></path><path d="M141.87,294.68a8.06,8.06,0,0,0-1.37.17,4.63,4.63,0,0,0-2.93,2.42,4.5,4.5,0,0,0-.36,2.74,4.42,4.42,0,0,0,3.38,3.52,13.75,13.75,0,0,0,2,.18L147,304l48.22,3a4.32,4.32,0,0,0,1.06-8.55c-4.37-.35-8.7-.57-12.77-.85l-21.67-1.42-14.61-1-4-.3-1-.09a1.41,1.41,0,0,1-.35-.05h.35l1,0,4,.21,14.62.84,21.68,1.32c4.09.27,8.34.48,12.83.83a4.77,4.77,0,0,1,2.95,1.82,4.84,4.84,0,0,1,.95,3.38,4.82,4.82,0,0,1-5.08,4.31L147,304.32l-4.4-.3a13.69,13.69,0,0,1-2-.21,4.63,4.63,0,0,1-3.55-3.76,4.7,4.7,0,0,1,.42-2.86,4.64,4.64,0,0,1,3.08-2.43A3.88,3.88,0,0,1,141.87,294.68Z" style="fill:#263238"></path><path d="M136.83,298.88c0-.13,13.12.59,29.27,1.61s29.25,1.95,29.24,2.09S182.23,302,166.07,301,136.83,299,136.83,298.88Z" style="fill:#263238"></path><path d="M194.52,316.28l-53.9-3.4a4.56,4.56,0,0,1-4.26-4.84h0a4.55,4.55,0,0,1,4.83-4.26l53.91,3.4a4.56,4.56,0,0,1,4.26,4.84h0A4.56,4.56,0,0,1,194.52,316.28Z" style="fill:#fafafa"></path><path d="M194.52,316.28a6.92,6.92,0,0,0,1.37-.17,4.56,4.56,0,0,0,2.93-2.41,4.5,4.5,0,0,0,.36-2.74,4.39,4.39,0,0,0-1.71-2.76,4.25,4.25,0,0,0-1.67-.76,13.75,13.75,0,0,0-2-.18L189.4,307l-48.22-3a4.32,4.32,0,0,0-3.71,6.92,4.28,4.28,0,0,0,2.65,1.63c4.37.35,8.7.58,12.77.86l21.67,1.42,14.61,1,4,.3,1,.09.35,0a1.88,1.88,0,0,1-.35,0l-1-.05-4-.2-14.62-.85-21.68-1.31c-4.09-.27-8.34-.48-12.83-.84a4.76,4.76,0,0,1-2.95-1.81,4.8,4.8,0,0,1,.71-6.55,4.76,4.76,0,0,1,3.42-1.14l48.21,3.11,4.41.3a15.17,15.17,0,0,1,2,.2,4.82,4.82,0,0,1,1.77.83,4.64,4.64,0,0,1-1.72,8.23A3.69,3.69,0,0,1,194.52,316.28Z" style="fill:#263238"></path><path d="M199.56,312.08c0,.14-13.12-.58-29.27-1.6s-29.25-2-29.24-2.09,13.11.58,29.27,1.6S199.57,312,199.56,312.08Z" style="fill:#263238"></path><path d="M140.72,312.89l53.9,3.4a4.56,4.56,0,0,1,4.27,4.84h0a4.56,4.56,0,0,1-4.84,4.26L140.14,322a4.56,4.56,0,0,1-4.26-4.84h0A4.56,4.56,0,0,1,140.72,312.89Z" style="fill:#fafafa"></path><path d="M140.72,312.89a6.92,6.92,0,0,0-1.37.17,4.58,4.58,0,0,0-2.93,2.41,4.5,4.5,0,0,0-.36,2.74,4.4,4.4,0,0,0,1.72,2.76,4.14,4.14,0,0,0,1.66.76,13.76,13.76,0,0,0,2,.18l4.4.26,48.22,3a4.31,4.31,0,0,0,4.56-3.87,4.3,4.3,0,0,0-.85-3,4.34,4.34,0,0,0-2.65-1.64c-4.37-.34-8.7-.57-12.77-.85l-21.67-1.42-14.61-1-4-.3-1-.09-.35,0h.35l1,0,4,.21,14.62.85,21.68,1.31c4.09.27,8.34.48,12.83.84a4.76,4.76,0,0,1,2.95,1.81,4.81,4.81,0,0,1-.7,6.55,4.8,4.8,0,0,1-3.43,1.14l-48.21-3.11-4.4-.3a15.16,15.16,0,0,1-2-.2,4.89,4.89,0,0,1-1.77-.83,4.64,4.64,0,0,1,1.72-8.23A3.68,3.68,0,0,1,140.72,312.89Z" style="fill:#263238"></path><path d="M135.68,317.09c0-.14,13.12.58,29.27,1.6s29.25,2,29.24,2.09-13.11-.58-29.27-1.6S135.68,317.22,135.68,317.09Z" style="fill:#263238"></path><path d="M168.43,324.22a7.94,7.94,0,0,1-.2-1.44c-.1-.93-.22-2.27-.33-3.93-.24-3.33-.44-7.94-.45-13s.19-9.69.41-13c.11-1.66.22-3,.32-3.94a8.45,8.45,0,0,1,.19-1.43,7.67,7.67,0,0,1,0,1.45c-.05,1-.1,2.34-.17,3.94-.13,3.32-.27,7.92-.26,13s.16,9.68.3,13c.07,1.59.13,2.92.18,3.94A8.53,8.53,0,0,1,168.43,324.22Z" style="fill:#407BFF"></path><path d="M161.87,323.73c-.12,0,2.33-8.16,5.48-18.13s5.82-18,6-18-2.33,8.16-5.48,18.13S162,323.77,161.87,323.73Z" style="fill:#407BFF"></path><path d="M169.66,287.44a7.77,7.77,0,0,1-1.09-1c-.68-.65-1.63-1.63-2.75-2.91a58.82,58.82,0,0,1-3.66-4.66c-.65-.91-1.3-1.89-1.94-2.92a5.32,5.32,0,0,1-.81-1.75,2,2,0,0,1,.62-2,1.53,1.53,0,0,1,1.07-.3,2.37,2.37,0,0,1,1,.38,5.83,5.83,0,0,1,1.37,1.34,30,30,0,0,1,2.06,2.86,30.45,30.45,0,0,1,2.69,5.3,26.84,26.84,0,0,1,1.19,3.82c.11.46.18.82.22,1.07s0,.37,0,.38a12.49,12.49,0,0,1-.43-1.4,35.91,35.91,0,0,0-1.33-3.74,31.58,31.58,0,0,0-2.75-5.19,32.49,32.49,0,0,0-2-2.79,5.48,5.48,0,0,0-1.26-1.24,1.26,1.26,0,0,0-1.49-.1,1.52,1.52,0,0,0-.44,1.49,5.07,5.07,0,0,0,.73,1.59c.64,1,1.27,2,1.91,2.91,1.26,1.83,2.49,3.41,3.56,4.7s2,2.3,2.61,3A8.06,8.06,0,0,1,169.66,287.44Z" style="fill:#407BFF"></path><path d="M169.71,287.25a4.26,4.26,0,0,1,.14-1.15,23.32,23.32,0,0,1,.78-3.07,27.32,27.32,0,0,1,1.84-4.33c.41-.78.89-1.58,1.42-2.39.28-.41.54-.79.87-1.21a1.77,1.77,0,0,1,.69-.52.91.91,0,0,1,1,.19,1.82,1.82,0,0,1,.31,1.65c-.11.49-.22,1-.37,1.43a19.13,19.13,0,0,1-1,2.61,18.42,18.42,0,0,1-2.59,3.94,16.69,16.69,0,0,1-2.29,2.19,4.47,4.47,0,0,1-1,.64,33.61,33.61,0,0,0,3-3.06,19.15,19.15,0,0,0,2.45-3.9,20.14,20.14,0,0,0,1-2.55c.13-.45.24-.93.35-1.39a1.5,1.5,0,0,0-.17-1.21c-.25-.24-.65-.06-.94.3s-.58.77-.84,1.16c-.53.78-1,1.57-1.43,2.33a30.68,30.68,0,0,0-1.9,4.23C170.06,285.63,169.8,287.27,169.71,287.25Z" style="fill:#407BFF"></path><path d="M207.61,290.66l-.66-.05-76.7-5.74a1.72,1.72,0,0,0-1.85,1.59h0a1.72,1.72,0,0,0,1.59,1.85l2.08.15,2.79,39.09,61.32,5.32L206.69,294l2.88.26a1.73,1.73,0,0,0,1.88-1.58h0a1.73,1.73,0,0,0-1.57-1.85ZM148,322.46l-7.5-.62-.95-15.11,8.45.63Zm0-18.56-8.66-.64-.9-14.32,9.56.72Zm16.17,19.92-8.85-.74V307.9l10,.75Zm1.39-18.6-10.24-.77V290.2l11.3.85Zm15.73,20-9.83-.82,1.14-15.24,10.78.8Zm2.56-18.68-11-.82,1.06-14.16,11.87.88Zm8.55,19.61-3.82-.32,2.11-15.32,5.28.4Zm4.37-18.64-5.62-.42,1.94-14.1,7,.52Z" style="fill:#455a64"></path><path d="M205.39,293.86c0,.17-16.1-.87-35.93-2.33s-35.9-2.78-35.89-2.95,16.1.88,35.93,2.34S205.41,293.69,205.39,293.86Z" style="fill:#263238"></path><path d="M418.93,304.2l-54,.4a4.55,4.55,0,0,1-4.59-4.52h0a4.54,4.54,0,0,1,4.52-4.59l54-.41a4.55,4.55,0,0,1,4.59,4.53h0A4.56,4.56,0,0,1,418.93,304.2Z" style="fill:#fafafa"></path><path d="M418.93,304.2a7.43,7.43,0,0,0,1.35-.27,4.54,4.54,0,0,0,2.75-2.61,4.48,4.48,0,0,0,.17-2.76,4.4,4.4,0,0,0-1.91-2.63,4.31,4.31,0,0,0-1.71-.64,13.17,13.17,0,0,0-2,0l-4.41.05-48.31.43a4.32,4.32,0,0,0-3.22,7.16,4.23,4.23,0,0,0,2.76,1.44c4.39,0,8.72,0,12.8,0l21.72-.11,14.64,0h4l1,0a1.35,1.35,0,0,1,.35,0l-.35,0-1,0-4,.07-14.64.19-21.72.22c-4.1,0-8.35.11-12.86.07a4.79,4.79,0,0,1-2.82-8.18,4.81,4.81,0,0,1,3.33-1.39l48.32-.29h4.41a13.83,13.83,0,0,1,2,.06,4.52,4.52,0,0,1,1.82.7,4.64,4.64,0,0,1-1.13,8.33A3.81,3.81,0,0,1,418.93,304.2Z" style="fill:#263238"></path><path d="M423.65,299.65c0,.14-13.12.35-29.3.47s-29.31.11-29.31,0,13.12-.34,29.31-.46S423.65,299.52,423.65,299.65Z" style="fill:#263238"></path><path d="M365,304.6l54-.4a4.56,4.56,0,0,1,4.59,4.52h0a4.56,4.56,0,0,1-4.52,4.6l-54,.4a4.55,4.55,0,0,1-4.59-4.52h0A4.56,4.56,0,0,1,365,304.6Z" style="fill:#fafafa"></path><path d="M365,304.6a8.52,8.52,0,0,0-1.35.27,4.57,4.57,0,0,0-2.75,2.61,4.49,4.49,0,0,0-.17,2.76,4.43,4.43,0,0,0,1.9,2.64,4.57,4.57,0,0,0,1.72.64,16.39,16.39,0,0,0,2,0l4.41-.05,48.31-.44a4.31,4.31,0,0,0,.46-8.6c-4.39,0-8.72,0-12.8,0l-21.72.11-14.64,0-4,0h-1l-.35,0a2.37,2.37,0,0,1,.35,0l1,0,4-.07,14.64-.19,21.72-.21c4.1,0,8.35-.11,12.85-.08a4.8,4.8,0,0,1-.5,9.57l-48.32.29-4.41,0a15.55,15.55,0,0,1-2.05-.06,4.7,4.7,0,0,1-1.81-.71,4.64,4.64,0,0,1-2-2.8,4.73,4.73,0,0,1,.22-2.89,4.62,4.62,0,0,1,2.9-2.63A3.72,3.72,0,0,1,365,304.6Z" style="fill:#263238"></path><path d="M360.29,309.15c0-.14,13.13-.34,29.31-.47s29.31-.11,29.31,0-13.12.34-29.31.46S360.3,309.28,360.29,309.15Z" style="fill:#263238"></path><path d="M419.07,322.44l-54,.4a4.56,4.56,0,0,1-4.6-4.52h0a4.57,4.57,0,0,1,4.53-4.6l54-.4a4.56,4.56,0,0,1,4.59,4.52h0A4.56,4.56,0,0,1,419.07,322.44Z" style="fill:#fafafa"></path><path d="M419.07,322.44a9,9,0,0,0,1.35-.27,4.56,4.56,0,0,0,2.75-2.61,4.49,4.49,0,0,0,.17-2.76,4.44,4.44,0,0,0-1.91-2.63,4.38,4.38,0,0,0-1.71-.65,16.52,16.52,0,0,0-2,0l-4.41,0L365,314a4.31,4.31,0,0,0-3.21,7.16,4.25,4.25,0,0,0,2.75,1.44c4.39,0,8.73,0,12.8,0l21.72-.11,14.65,0,4,0,1,0a1.41,1.41,0,0,1,.36,0l-.36,0-1,0-4,.07-14.64.19-21.72.21c-4.1,0-8.36.12-12.86.08a4.81,4.81,0,0,1-2.83-8.19,4.87,4.87,0,0,1,3.34-1.38l48.31-.29,4.41,0a14,14,0,0,1,2.05.07,4.52,4.52,0,0,1,1.82.7,4.59,4.59,0,0,1,2,2.8,4.63,4.63,0,0,1-3.11,5.53A3.81,3.81,0,0,1,419.07,322.44Z" style="fill:#263238"></path><path d="M423.79,317.89c0,.14-13.12.34-29.3.47s-29.32.11-29.32,0,13.12-.34,29.31-.46S423.79,317.76,423.79,317.89Z" style="fill:#263238"></path><path d="M393.6,332.19a7.59,7.59,0,0,1-.31-1.42c-.16-.92-.37-2.25-.6-3.9-.47-3.3-1-7.88-1.36-13s-.5-9.68-.52-13c0-1.67,0-3,0-3.95a7.19,7.19,0,0,1,.1-1.44,9.19,9.19,0,0,1,.09,1.44c0,1,.07,2.35.12,3.94.1,3.33.29,7.93.65,13s.84,9.64,1.22,12.95c.18,1.58.34,2.9.45,3.92A8.49,8.49,0,0,1,393.6,332.19Z" style="fill:#407BFF"></path><path d="M387,332.17c-.13,0,1.75-8.31,4.19-18.48s4.53-18.39,4.66-18.36-1.74,8.3-4.18,18.48S387.15,332.2,387,332.17Z" style="fill:#407BFF"></path><path d="M392.24,295.42a7.75,7.75,0,0,1-1.17-.9c-.72-.61-1.74-1.52-2.94-2.71a58.36,58.36,0,0,1-4-4.39c-.71-.87-1.43-1.79-2.14-2.78a5.17,5.17,0,0,1-.93-1.68,2,2,0,0,1,.47-2,1.49,1.49,0,0,1,1.06-.38,2.35,2.35,0,0,1,1,.31,6,6,0,0,1,1.46,1.24,33.51,33.51,0,0,1,2.25,2.7,30.34,30.34,0,0,1,3.06,5.1,26.41,26.41,0,0,1,1.46,3.73c.14.45.23.81.29,1.05s.08.37.06.38a11,11,0,0,1-.53-1.37,35.38,35.38,0,0,0-1.59-3.64,33.21,33.21,0,0,0-3.1-5,31.28,31.28,0,0,0-2.25-2.64,5.35,5.35,0,0,0-1.34-1.14,1.27,1.27,0,0,0-1.5,0,1.53,1.53,0,0,0-.34,1.52,5,5,0,0,0,.85,1.53c.71,1,1.41,1.91,2.11,2.78,1.38,1.73,2.72,3.22,3.88,4.43s2.14,2.16,2.82,2.81A9.88,9.88,0,0,1,392.24,295.42Z" style="fill:#407BFF"></path><path d="M392.27,295.22a4.44,4.44,0,0,1,.05-1.16,26.1,26.1,0,0,1,.57-3.11,27.16,27.16,0,0,1,1.53-4.45,27.46,27.46,0,0,1,1.25-2.48c.25-.43.48-.83.78-1.27a1.71,1.71,0,0,1,.65-.56.91.91,0,0,1,1,.11,1.85,1.85,0,0,1,.42,1.63c-.07.5-.16,1-.27,1.46a18.4,18.4,0,0,1-.82,2.66,18,18,0,0,1-2.31,4.11,15.57,15.57,0,0,1-2.13,2.35,4.26,4.26,0,0,1-.92.71,32.47,32.47,0,0,0,2.77-3.26,19.21,19.21,0,0,0,2.17-4.07,19.44,19.44,0,0,0,.78-2.61c.1-.46.18-.94.25-1.41a1.47,1.47,0,0,0-.25-1.19c-.27-.23-.66,0-.92.36s-.52.81-.75,1.22a25.67,25.67,0,0,0-1.26,2.43,29.86,29.86,0,0,0-1.61,4.35C392.51,293.59,392.36,295.24,392.27,295.22Z" style="fill:#407BFF"></path><polygon points="318.67 334.29 325.35 311.94 319.5 311.94 313.75 332.94 318.67 334.29" style="fill:#e0e0e0"></polygon><polygon points="274.79 415.51 290.88 436.7 294.66 434.91 277.76 412.8 274.79 415.51" style="fill:#263238"></polygon><rect x="283.41" y="434.25" width="20.5" height="5.78" transform="translate(-7.92 5.43) rotate(-1.04)" style="fill:#e0e0e0"></rect><path d="M196.26,256.92c2.55-4.92,20.84-3.41,20.84-3.41V258s-.9-.14-2.29-.3a14.59,14.59,0,0,0-.23,3.95,5.53,5.53,0,0,0,2.1,3.93c1.48,1,6.35,1.22,8.13,1.43,2.5.3,4.06.32,4.06,2.36-4.73,1.15-9.68,0-14.4-1.19a10.06,10.06,0,0,1-4.58-2A6.75,6.75,0,0,1,208,261.4a16.27,16.27,0,0,1,.56-4.15c-4.24-.16-8.45.18-9.14,1.91-2,5,22.88,17.59,22.88,17.59l-1.94,4.59C215,278.87,191.27,266.54,196.26,256.92Z" style="fill:#e0e0e0"></path><polygon points="201.95 306.5 211.45 309.25 209.65 314.72 200.78 312.39 201.95 306.5" style="fill:#455a64"></polygon><polygon points="196.55 321.99 206.05 324.74 204.25 330.21 195.39 327.88 196.55 321.99" style="fill:#455a64"></polygon><path d="M384,409.94c-.12,0,3.58-12.8,8.26-28.51S400.87,353,401,353s-3.58,12.8-8.26,28.52S384.16,410,384,409.94Z" style="fill:#263238"></path><path d="M384,409.94c-.12,0,1.43-13.22,3.47-29.48S391.3,351,391.43,351,390,364.25,388,380.52,384.17,410,384,409.94Z" style="fill:#263238"></path><path d="M384,409.94c-.12,0-.93-13.26-1.81-29.63s-1.48-29.65-1.35-29.65.93,13.25,1.81,29.63S384.17,409.93,384,409.94Z" style="fill:#263238"></path><path d="M384,409.94c-.12,0-3.14-12.92-6.74-28.91s-6.42-29-6.29-29,3.13,12.91,6.73,28.91S384.16,409.91,384,409.94Z" style="fill:#263238"></path><path d="M384,409.94c-.11.05-5.25-12.21-11.48-27.37S361.39,355.06,361.5,355s5.26,12.2,11.48,27.37S384.16,409.89,384,409.94Z" style="fill:#263238"></path><path d="M384,409.94c-.11.07-7.22-11.16-15.89-25.07s-15.62-25.24-15.52-25.31,7.22,11.16,15.9,25.07S384.15,409.87,384,409.94Z" style="fill:#263238"></path><path d="M384,409.94c-.09.08-9-9.79-19.86-22.06s-19.63-22.27-19.53-22.36,9,9.79,19.86,22.06S384.13,409.86,384,409.94Z" style="fill:#263238"></path><path d="M384,409.94c-.08.1-10.5-8.15-23.27-18.42s-23.08-18.68-23-18.78,10.5,8.15,23.28,18.42S384.12,409.84,384,409.94Z" style="fill:#263238"></path><path d="M384,409.94c-.06.11-11.71-6.28-26-14.27S332.14,381.11,332.2,381s11.72,6.28,26,14.27S384.1,409.83,384,409.94Z" style="fill:#263238"></path><path d="M384,409.94c0,.12-12.6-4.23-28.05-9.72s-27.94-10-27.9-10.14,12.6,4.23,28.05,9.72S384.08,409.82,384,409.94Z" style="fill:#263238"></path><path d="M384,409.94c0,.12-13.13-2.07-29.28-4.89s-29.22-5.21-29.2-5.33,13.13,2.06,29.28,4.89S384.06,409.82,384,409.94Z" style="fill:#263238"></path><path d="M384,409.94c0,.12-13.29.16-29.68.08s-29.69-.25-29.69-.37,13.29-.16,29.69-.08S384,409.81,384,409.94Z" style="fill:#263238"></path><path d="M384,409.94c0,.12-13.08,2.38-29.25,5s-29.31,4.72-29.33,4.6,13.08-2.38,29.26-5S384,409.82,384,409.94Z" style="fill:#263238"></path><path d="M384,409.94c0,.12-12.49,4.54-28,9.87s-28.11,9.55-28.15,9.43,12.49-4.53,28-9.86S384,409.82,384,409.94Z" style="fill:#263238"></path><path d="M384,409.94c.06.11-11.56,6.56-26,14.41s-26.11,14.12-26.17,14,11.56-6.56,25.95-14.41S384,409.83,384,409.94Z" style="fill:#263238"></path><path d="M384,409.94c.08.1-10.3,8.4-23.17,18.55s-23.38,18.29-23.46,18.19,10.3-8.4,23.18-18.55S384,409.84,384,409.94Z" style="fill:#263238"></path><path d="M384,409.94c.09.08-8.75,10-19.74,22.16s-20,21.95-20.09,21.86S353,444,364,431.8,384,409.86,384,409.94Z" style="fill:#263238"></path><path d="M384,409.94c.11.07-7,11.33-15.76,25.15s-16,25-16.14,24.92,6.95-11.33,15.76-25.16S383.94,409.87,384,409.94Z" style="fill:#263238"></path><path d="M384,409.94c.12.05-5,12.33-11.33,27.43S361.08,464.68,361,464.64s5-12.33,11.33-27.44S383.93,409.89,384,409.94Z" style="fill:#263238"></path><path d="M384,409.94c.12,0-2.82,13-6.58,28.94s-6.9,28.88-7,28.85,2.82-13,6.58-29S383.92,409.91,384,409.94Z" style="fill:#263238"></path><path d="M384,409.94c.13,0-.61,13.28-1.65,29.64s-2,29.62-2.1,29.61.62-13.28,1.65-29.64S383.92,409.93,384,409.94Z" style="fill:#263238"></path><path d="M384,409.94c.13,0,1.62,13.19,3.33,29.49s3,29.54,2.89,29.55-1.62-13.19-3.34-29.5S383.92,410,384,409.94Z" style="fill:#263238"></path><path d="M384,409.94c.12,0,3.8,12.74,8.22,28.52s7.91,28.61,7.78,28.65-3.8-12.74-8.22-28.53S383.92,410,384,409.94Z" style="fill:#263238"></path><path d="M384,409.94c.11-.05,5.88,11.92,12.88,26.74s12.58,26.89,12.46,26.95-5.87-11.92-12.87-26.75S383.93,410,384,409.94Z" style="fill:#263238"></path><path d="M384,409.94c.1-.07,7.79,10.77,17.17,24.21s16.9,24.41,16.8,24.48-7.79-10.77-17.17-24.22S383.94,410,384,409.94Z" style="fill:#263238"></path><path d="M384,409.94c.09-.09,9.48,9.32,21,21s20.74,21.24,20.65,21.32-9.48-9.31-21-21S384,410,384,409.94Z" style="fill:#263238"></path><path d="M384,409.94c.07-.1,10.91,7.6,24.19,17.2s24,17.46,23.93,17.56-10.9-7.59-24.19-17.2S384,410,384,409.94Z" style="fill:#263238"></path><path d="M384,409.94c.06-.11,12,5.67,26.73,12.91s26.59,13.2,26.53,13.31-12-5.66-26.73-12.91S384,410.05,384,409.94Z" style="fill:#263238"></path><path d="M384,409.94c0-.12,12.8,3.58,28.51,8.25s28.42,8.57,28.39,8.69-12.8-3.57-28.52-8.25S384,410.06,384,409.94Z" style="fill:#263238"></path><path d="M384,409.94c0-.12,13.22,1.38,29.49,3.37S443,417,443,417.13s-13.22-1.38-29.49-3.37S384,410.06,384,409.94Z" style="fill:#263238"></path><path d="M384,409.94c0-.13,13.27-.85,29.64-1.61s29.66-1.28,29.66-1.16-13.26.85-29.64,1.61S384.05,410.06,384,409.94Z" style="fill:#263238"></path><path d="M384,409.94c0-.12,12.94-3.05,28.95-6.55s29-6.22,29.05-6.1-12.93,3-29,6.55S384.07,410.06,384,409.94Z" style="fill:#263238"></path><path d="M384,409.94c-.05-.12,12.25-5.18,27.45-11.3s27.58-11,27.62-10.87-12.24,5.17-27.45,11.29S384.09,410.06,384,409.94Z" style="fill:#263238"></path><path d="M384,409.94c-.06-.11,11.21-7.15,25.17-15.73s25.35-15.45,25.42-15.34S423.42,386,409.45,394.6,384.11,410.05,384,409.94Z" style="fill:#263238"></path><path d="M384,409.94c-.08-.09,9.85-8.92,22.19-19.72s22.4-19.47,22.49-19.38-9.85,8.92-22.19,19.72S384.12,410,384,409.94Z" style="fill:#263238"></path><path d="M384,409.94c-.1-.08,8.22-10.45,18.58-23.15s18.83-23,18.93-22.87-8.22,10.44-18.58,23.15S384.14,410,384,409.94Z" style="fill:#263238"></path><path d="M384,409.94c-.11-.06,6.36-11.67,14.44-25.93s14.73-25.78,14.84-25.72S407,370,398.88,384.23,384.15,410,384,409.94Z" style="fill:#263238"></path><circle cx="288.31" cy="419.5" r="17.41" style="fill:#ebebeb"></circle><circle cx="288.29" cy="419.8" r="12.17" transform="translate(-212.4 326.81) rotate(-45)" style="fill:#e0e0e0"></circle><path d="M165.71,409.56c-.12,0,3.58-12.8,8.26-28.51s8.57-28.42,8.69-28.39-3.58,12.8-8.26,28.52S165.83,409.59,165.71,409.56Z" style="fill:#263238"></path><path d="M165.71,409.56c-.12,0,1.43-13.22,3.47-29.48s3.8-29.44,3.92-29.43-1.43,13.22-3.47,29.49S165.84,409.57,165.71,409.56Z" style="fill:#263238"></path><path d="M165.71,409.56c-.12,0-.93-13.26-1.8-29.63s-1.48-29.65-1.36-29.65.94,13.25,1.81,29.63S165.84,409.55,165.71,409.56Z" style="fill:#263238"></path><path d="M165.71,409.56c-.12,0-3.13-12.92-6.73-28.91s-6.42-29-6.3-29,3.14,12.91,6.74,28.91S165.84,409.53,165.71,409.56Z" style="fill:#263238"></path><path d="M165.71,409.56c-.11.05-5.25-12.21-11.47-27.37s-11.18-27.51-11.07-27.55,5.26,12.2,11.48,27.37S165.83,409.51,165.71,409.56Z" style="fill:#263238"></path><path d="M165.71,409.56c-.1.07-7.22-11.16-15.89-25.07s-15.62-25.24-15.52-25.31,7.23,11.16,15.9,25.07S165.82,409.49,165.71,409.56Z" style="fill:#263238"></path><path d="M165.71,409.56c-.09.08-9-9.79-19.86-22.06s-19.62-22.27-19.53-22.36,9,9.79,19.87,22.06S165.81,409.48,165.71,409.56Z" style="fill:#263238"></path><path d="M165.71,409.56c-.07.1-10.5-8.15-23.27-18.42s-23.07-18.68-23-18.78,10.5,8.15,23.27,18.42S165.79,409.46,165.71,409.56Z" style="fill:#263238"></path><path d="M165.71,409.56c-.06.11-11.71-6.28-26-14.27s-25.87-14.56-25.81-14.67,11.71,6.28,26,14.27S165.78,409.45,165.71,409.56Z" style="fill:#263238"></path><path d="M165.71,409.56c0,.12-12.6-4.23-28-9.72s-27.95-10-27.9-10.14,12.59,4.23,28.05,9.72S165.76,409.44,165.71,409.56Z" style="fill:#263238"></path><path d="M165.71,409.56c0,.12-13.13-2.07-29.27-4.89s-29.23-5.21-29.21-5.33,13.13,2.06,29.28,4.89S165.74,409.44,165.71,409.56Z" style="fill:#263238"></path><path d="M165.71,409.56c0,.12-13.29.16-29.68.08s-29.68-.25-29.68-.37,13.29-.16,29.68-.08S165.72,409.43,165.71,409.56Z" style="fill:#263238"></path><path d="M165.71,409.56c0,.12-13.07,2.38-29.25,5s-29.31,4.72-29.33,4.6,13.08-2.38,29.26-5S165.69,409.44,165.71,409.56Z" style="fill:#263238"></path><path d="M165.71,409.56c0,.12-12.49,4.54-28,9.87s-28.11,9.55-28.15,9.43,12.5-4.53,28-9.86S165.67,409.44,165.71,409.56Z" style="fill:#263238"></path><path d="M165.71,409.56c.06.11-11.56,6.56-26,14.41s-26.11,14.12-26.17,14,11.56-6.56,26-14.41S165.65,409.45,165.71,409.56Z" style="fill:#263238"></path><path d="M165.71,409.56c.08.1-10.3,8.4-23.17,18.55s-23.38,18.29-23.46,18.19,10.3-8.4,23.18-18.55S165.64,409.46,165.71,409.56Z" style="fill:#263238"></path><path d="M165.71,409.56c.1.08-8.74,10-19.74,22.16s-20,21.95-20.08,21.86,8.74-10,19.74-22.16S165.62,409.48,165.71,409.56Z" style="fill:#263238"></path><path d="M165.71,409.56c.11.07-7,11.33-15.76,25.15s-16,25-16.14,24.92,6.95-11.33,15.76-25.16S165.61,409.49,165.71,409.56Z" style="fill:#263238"></path><path d="M165.71,409.56c.12.05-5,12.33-11.33,27.43s-11.63,27.31-11.75,27.27,5-12.33,11.34-27.44S165.6,409.51,165.71,409.56Z" style="fill:#263238"></path><path d="M165.71,409.56c.13,0-2.82,13-6.58,28.94s-6.9,28.87-7,28.85,2.82-13,6.58-29S165.59,409.53,165.71,409.56Z" style="fill:#263238"></path><path d="M165.71,409.56c.13,0-.61,13.28-1.64,29.64s-2,29.62-2.1,29.61.61-13.28,1.64-29.64S165.59,409.55,165.71,409.56Z" style="fill:#263238"></path><path d="M165.71,409.56c.13,0,1.62,13.19,3.34,29.49s3,29.54,2.88,29.55-1.62-13.19-3.33-29.5S165.59,409.57,165.71,409.56Z" style="fill:#263238"></path><path d="M165.71,409.56c.13,0,3.81,12.74,8.22,28.52s7.91,28.61,7.79,28.65-3.8-12.74-8.22-28.53S165.59,409.59,165.71,409.56Z" style="fill:#263238"></path><path d="M165.71,409.56c.12-.05,5.88,11.92,12.88,26.74s12.58,26.89,12.47,26.95-5.88-11.92-12.88-26.75S165.6,409.61,165.71,409.56Z" style="fill:#263238"></path><path d="M165.71,409.56c.11-.07,7.79,10.77,17.17,24.21s16.9,24.41,16.8,24.48-7.79-10.77-17.17-24.22S165.61,409.63,165.71,409.56Z" style="fill:#263238"></path><path d="M165.71,409.56c.09-.09,9.49,9.32,21,21s20.75,21.24,20.66,21.32-9.48-9.31-21-21S165.63,409.65,165.71,409.56Z" style="fill:#263238"></path><path d="M165.71,409.56c.08-.1,10.91,7.6,24.2,17.2s24,17.46,23.93,17.56-10.91-7.59-24.2-17.2S165.64,409.66,165.71,409.56Z" style="fill:#263238"></path><path d="M165.71,409.56c.06-.11,12,5.67,26.73,12.91S219,435.67,219,435.78s-12-5.66-26.74-12.91S165.66,409.67,165.71,409.56Z" style="fill:#263238"></path><path d="M165.71,409.56c0-.12,12.81,3.58,28.52,8.25s28.42,8.57,28.38,8.69-12.8-3.57-28.51-8.25S165.68,409.68,165.71,409.56Z" style="fill:#263238"></path><path d="M165.71,409.56c0-.13,13.23,1.38,29.5,3.37s29.45,3.7,29.44,3.82-13.22-1.38-29.5-3.37S165.7,409.68,165.71,409.56Z" style="fill:#263238"></path><path d="M165.71,409.56c0-.13,13.27-.85,29.64-1.61S225,406.67,225,406.79s-13.27.85-29.64,1.61S165.72,409.68,165.71,409.56Z" style="fill:#263238"></path><path d="M165.71,409.56c0-.12,12.94-3.05,29-6.55s29-6.22,29.05-6.1-12.94,3-29,6.55S165.74,409.68,165.71,409.56Z" style="fill:#263238"></path><path d="M165.71,409.56c0-.12,12.25-5.18,27.45-11.3s27.58-11,27.63-10.87-12.25,5.17-27.46,11.29S165.76,409.68,165.71,409.56Z" style="fill:#263238"></path><path d="M165.71,409.56c-.06-.11,11.21-7.15,25.18-15.73s25.35-15.45,25.41-15.35-11.2,7.15-25.17,15.74S165.78,409.67,165.71,409.56Z" style="fill:#263238"></path><path d="M165.71,409.56c-.08-.09,9.86-8.92,22.19-19.72s22.41-19.47,22.49-19.38-9.85,8.92-22.19,19.72S165.8,409.65,165.71,409.56Z" style="fill:#263238"></path><path d="M165.71,409.56c-.09-.08,8.23-10.45,18.58-23.15s18.83-23,18.93-22.87S195,374,184.64,386.69,165.81,409.64,165.71,409.56Z" style="fill:#263238"></path><path d="M165.71,409.56c-.1-.06,6.36-11.67,14.45-25.93s14.73-25.78,14.83-25.72-6.35,11.68-14.44,25.94S165.82,409.62,165.71,409.56Z" style="fill:#263238"></path><path d="M98.29,409.56a67.43,67.43,0,1,0,67.42-67.42A67.43,67.43,0,0,0,98.29,409.56Zm5.7,0a61.73,61.73,0,1,1,61.72,61.73A61.72,61.72,0,0,1,104,409.56Z" style="fill:#263238"></path><path d="M104,409.56a61.73,61.73,0,1,0,61.72-61.73A61.72,61.72,0,0,0,104,409.56Zm2.37,0a59.36,59.36,0,1,1,59.35,59.36A59.36,59.36,0,0,1,106.36,409.56Z" style="fill:#e0e0e0"></path><path d="M316.62,409.56A67.42,67.42,0,1,0,384,342.14,67.43,67.43,0,0,0,316.62,409.56Zm5.69,0A61.73,61.73,0,1,1,384,471.29,61.73,61.73,0,0,1,322.31,409.56Z" style="fill:#263238"></path><path d="M322.31,409.56A61.73,61.73,0,1,0,384,347.83,61.73,61.73,0,0,0,322.31,409.56Zm2.37,0A59.36,59.36,0,1,1,384,468.92,59.36,59.36,0,0,1,324.68,409.56Z" style="fill:#e0e0e0"></path><rect x="352.14" y="404.45" width="3.83" height="11" style="fill:#455a64"></rect><rect x="347.09" y="327.48" width="2.62" height="96.36" transform="translate(-163.83 364.52) rotate(-45.91)" style="fill:#455a64"></rect><path d="M456.82,392.75s-15-56.32-70.83-56.32-75.88,44.12-75.88,79l4.92-1.07s-2.69-73.18,71.17-73.18c50.31,0,66.3,53.44,66.3,53.44Z" style="fill:#455a64"></path><path d="M269.47,417.57s3.25-15.8,16.56-17.94,66.6,0,66.6,0,5.49.22,5.49,7.16L323.78,408a16.85,16.85,0,0,0-7.74,2.18l-10.63,6s-4.35-17.19-21.49-12.77C273.31,406.18,271,418,271,418Z" style="fill:#e0e0e0"></path><path d="M269.47,417.57l.38.1L271,418l-.05,0a21.85,21.85,0,0,1,2.12-5.68,20,20,0,0,1,2.68-3.92,17.47,17.47,0,0,1,4.48-3.65,19.22,19.22,0,0,1,6.44-2,18.26,18.26,0,0,1,3.72-.16,14.8,14.8,0,0,1,3.89.72,15.59,15.59,0,0,1,7,4.73,22.18,22.18,0,0,1,4.37,8.12l-.3-.13,10.55-6A17.24,17.24,0,0,1,322,408a30.66,30.66,0,0,1,3.31-.22l3.35-.12,28.33-1,1.14,0-.23.24a7.81,7.81,0,0,0-1.42-4.83,5.57,5.57,0,0,0-4.35-2.11l-10.18-.35c-6.68-.21-13.12-.37-19.26-.47s-12-.16-17.41-.13-10.53.13-15.14.47c-1.16.05-2.27.22-3.37.34a9.29,9.29,0,0,0-1.59.29c-.51.12-1,.22-1.53.36l-1.43.54c-.23.1-.47.17-.69.28l-.65.35-1.26.69-1.13.82a22.16,22.16,0,0,0-6,7.11,32.77,32.77,0,0,0-2.39,5.44c-.22.64-.36,1.14-.45,1.48s-.14.5-.15.5a3.11,3.11,0,0,1,.1-.52c.08-.34.2-.84.41-1.49a31.14,31.14,0,0,1,2.31-5.5,22.32,22.32,0,0,1,6-7.24l1.14-.83,1.28-.72.65-.36.71-.28,1.45-.57c.51-.14,1-.25,1.56-.37a9.54,9.54,0,0,1,1.61-.31c1.1-.12,2.22-.29,3.38-.35,4.63-.37,9.71-.48,15.17-.53s11.28,0,17.42.08,12.58.24,19.26.44l10.19.35a6,6,0,0,1,4.72,2.29,8.39,8.39,0,0,1,1.52,5.13V407h-.24l-1.15.05-28.33,1-3.34.12a31.5,31.5,0,0,0-3.26.21,16.78,16.78,0,0,0-6,2l-10.57,5.95-.23.13-.07-.26a21.93,21.93,0,0,0-4.26-8,15.38,15.38,0,0,0-6.8-4.65,14.56,14.56,0,0,0-3.8-.72,18.48,18.48,0,0,0-3.66.14,19.28,19.28,0,0,0-6.35,1.94,17,17,0,0,0-4.43,3.57,19.79,19.79,0,0,0-2.7,3.84A23.37,23.37,0,0,0,271,418v0h0l-1.15-.37A2.93,2.93,0,0,1,269.47,417.57Z" style="fill:#263238"></path><path d="M301,383.06v-6.29c-12.58,0-21.23-3.1-26.28-5.7a29.44,29.44,0,0,1-8-5.68l-.06-.07-51.89-56.45-4.63,4.26L262,369.55C262.89,370.61,274.44,383.06,301,383.06Z" style="fill:#455a64"></path><rect x="257.95" y="375.27" width="92.05" height="6.29" transform="translate(-143.37 566.78) rotate(-74.06)" style="fill:#455a64"></rect><polygon points="290.14 426.02 384.48 412.67 383.6 406.44 292.54 419.32 208.28 327.16 203.64 331.41 290.14 426.02" style="fill:#455a64"></polygon><polygon points="220.31 276.14 225.23 277.37 215.78 310.01 211.45 307.99 220.31 276.14" style="fill:#e0e0e0"></polygon><path d="M236.68,433.9s11.5-35.42-9.24-64.93-48.88-31.87-60-33.37l-.29,4.71s29.57,1.95,46.73,18.87a74.48,74.48,0,0,1,20.06,71.54Z" style="fill:#455a64"></path><path d="M167.66,412.24c13.14-10.36,24.49-34.52,25-35.54l.11-.28,24.07-68.2-5.94-2.1-24,68.05c-.91,1.91-11.6,24.07-23.09,33.12Z" style="fill:#455a64"></path><path d="M326,351.86l19.51-21.24H430a1.43,1.43,0,0,0,1.51-1.31h0A1.42,1.42,0,0,0,430,328H344.06l-20.24,22Z" style="fill:#455a64"></path><rect x="350.9" y="368.11" width="81.48" height="2.62" transform="translate(-40.23 690.9) rotate(-79.99)" style="fill:#455a64"></rect><path d="M370.44,410.13a11.65,11.65,0,1,1,11.65,11.66A11.65,11.65,0,0,1,370.44,410.13Z" style="fill:#263238"></path><path d="M154.06,410.13a11.66,11.66,0,1,1,11.65,11.66A11.66,11.66,0,0,1,154.06,410.13Z" style="fill:#263238"></path><path d="M273.74,429.34a21.52,21.52,0,0,0,3.8,3.72,21,21,0,0,0,5.49,2.88,39.58,39.58,0,0,0,8,1.88,70.81,70.81,0,0,0,9.94.9A92.69,92.69,0,0,0,312.4,438c8-.94,16.82-2.31,26-4s17.88-3.59,25.79-5.33l11.22-2.49a39.92,39.92,0,0,0,9.44-3.14,19.45,19.45,0,0,0,3.62-2.4,14.35,14.35,0,0,0,2.57-2.89,12.9,12.9,0,0,0,2.23-5.78A9.53,9.53,0,0,0,393,408c-.26-.87-.5-1.3-.46-1.31s.06.1.16.31a7.91,7.91,0,0,1,.39,1,9.45,9.45,0,0,1,.39,4,13.15,13.15,0,0,1-2.2,5.91,14.54,14.54,0,0,1-2.6,3,19.57,19.57,0,0,1-3.65,2.46,40.38,40.38,0,0,1-9.51,3.23L364.27,429c-7.9,1.75-16.6,3.64-25.79,5.36s-18,3.09-26,4a91.36,91.36,0,0,1-11.49.7,70.43,70.43,0,0,1-10-1,39.06,39.06,0,0,1-8.05-2,20.75,20.75,0,0,1-5.5-3,17.56,17.56,0,0,1-2.87-2.75c-.26-.35-.47-.62-.63-.82S273.74,429.34,273.74,429.34Z" style="fill:#263238"></path><path d="M126.27,428h0a4,4,0,0,1-5.43-1.78l-5.22-10.31a4,4,0,0,1,1.78-5.44h0a4,4,0,0,1,5.44,1.79l5.22,10.3A4,4,0,0,1,126.27,428Z" style="fill:#407BFF"></path><path d="M406.76,445.33h0a4.06,4.06,0,0,1,0-5.73l8.15-8.18a4,4,0,0,1,5.72,0h0a4.06,4.06,0,0,1,0,5.73l-8.16,8.18A4,4,0,0,1,406.76,445.33Z" style="fill:#407BFF"></path><path d="M347.13,304.72c-.73,2.25-4,11.74-8.76,12.09s-37.75-4.79-42.7-6.05c-3.15-.8-5-6,2.53-6C309,304.72,348.77,299.69,347.13,304.72Z" style="fill:#455a64"></path><polygon points="274.56 395.5 289.42 425.23 293.63 425.23 279.48 394.38 274.56 395.5" style="fill:#263238"></polygon><rect x="264.25" y="388.57" width="21.23" height="7" style="fill:#e0e0e0"></rect><rect x="341.79" y="322.37" width="91.9" height="82.34" rx="8.51" style="fill:#407BFF"></rect><path d="M375.61,343c0,1.7-1.27,2.76-3.31,2.76h-1.54v2.1H369V340.2h3.31C374.34,340.2,375.61,341.25,375.61,343Zm-1.78,0c0-.84-.55-1.33-1.63-1.33h-1.44v2.65h1.44C373.28,344.29,373.83,343.8,373.83,343Z" style="fill:#fff"></path><path d="M381.73,347.83l-1.47-2.13h-1.63v2.13h-1.76V340.2h3.3c2,0,3.32,1.05,3.32,2.77a2.49,2.49,0,0,1-1.57,2.41l1.71,2.45Zm-1.66-6.19h-1.44v2.66h1.44c1.08,0,1.63-.5,1.63-1.33S381.15,341.64,380.07,341.64Z" style="fill:#fff"></path><path d="M390.79,346.41v1.42h-5.91V340.2h5.77v1.41h-4v1.66h3.54v1.38h-3.54v1.76Z" style="fill:#fff"></path><path d="M391.6,347.08l.6-1.33a4.46,4.46,0,0,0,2.52.79c1,0,1.47-.35,1.47-.81,0-1.43-4.44-.45-4.44-3.29,0-1.3,1.05-2.38,3.22-2.38a5.1,5.1,0,0,1,2.65.68l-.55,1.34a4.32,4.32,0,0,0-2.11-.6c-1,0-1.45.4-1.45.88,0,1.4,4.44.43,4.44,3.24,0,1.27-1.06,2.36-3.24,2.36A5.46,5.46,0,0,1,391.6,347.08Z" style="fill:#fff"></path><path d="M398.56,347.08l.6-1.33a4.46,4.46,0,0,0,2.52.79c1,0,1.47-.35,1.47-.81,0-1.43-4.44-.45-4.44-3.29,0-1.3,1.05-2.38,3.22-2.38a5.1,5.1,0,0,1,2.65.68l-.55,1.34a4.35,4.35,0,0,0-2.11-.6c-1.05,0-1.46.4-1.46.88,0,1.4,4.44.43,4.44,3.24,0,1.27-1,2.36-3.24,2.36A5.43,5.43,0,0,1,398.56,347.08Z" style="fill:#fff"></path><path d="M425.13,323.65s0-.07.07,0a1.51,1.51,0,0,1,.07.26c.05.23.11.58.17,1,.11.91.25,2.27.4,4,.3,3.54.66,8.72,1.05,15.24s.8,14.42,1.19,23.38.75,19,.79,29.84v.21h-.22c-12.74.48-26.73.72-41.35.57s-28.49-.67-41.16-1.41l-.21,0v-.2c-.27-10.87-.08-20.94.21-29.93s.7-16.89,1-23.44.66-11.72.87-15.29c.1-1.77.19-3.13.25-4.07,0-.45,0-.79.07-1.05s0-.35,0-.35a3.24,3.24,0,0,1,0,.36c0,.25,0,.59,0,1,0,.94-.1,2.3-.18,4.07-.17,3.57-.42,8.76-.73,15.3s-.67,14.45-.93,23.43-.43,19.05-.14,29.9l-.22-.22c12.67.72,26.59,1.23,41.14,1.38s28.6-.07,41.33-.53l-.21.23c0-10.83-.39-20.87-.73-29.83s-.73-16.84-1.08-23.37-.67-11.71-.92-15.25c-.13-1.77-.24-3.13-.33-4.05S425.19,323.52,425.13,323.65Z" style="fill:#263238"></path><path d="M427.85,361.72c0,.14-18,.25-40.27.25s-40.28-.11-40.28-.25,18-.24,40.28-.24S427.85,361.59,427.85,361.72Z" style="fill:#263238"></path><g style="opacity:0.30000000000000004"><path d="M424.29,377.76c-.14-.79-.41-1.7-1.16-2-1.06-.39-2,.77-2.47,1.81-1.1,2.48-1.62,5.18-2.53,7.74s-2.34,5.08-4.68,6.47-5.13,1.43-7.82,1.45c-13,.09-27.22-.35-40.24-.26l.13,0c-1-.12-2.16.1-2.45,1a1.64,1.64,0,0,0,.94,1.83,4.75,4.75,0,0,0,2.19.35l47.86.26c2.86,0,6-.09,8.09-2.09,1.51-1.47,2.05-3.66,2.34-5.75A35.7,35.7,0,0,0,424.29,377.76Z"></path></g><path d="M258.57,356.17l7.08,21.51s-19.48,14.43-18.56,18.53L289.29,384l-9.66-34Z" style="fill:#407BFF"></path><path d="M278.17,372.07a1.8,1.8,0,0,1,1.76,1.62,1.72,1.72,0,0,1-1.59,1.76,1.88,1.88,0,0,1-1.85-1.72c0-.88,1-1.84,1.85-1.65" style="fill:#e0e0e0"></path><path d="M289.58,384.85l-.93-3.29-40.51,12s-1.65,1.36-1,2.62Z" style="fill:#263238"></path><path d="M264.91,377.67c.06.2,1.12,0,2.33.37s2,1.07,2.16.94-.49-1.24-1.95-1.66S264.81,377.49,264.91,377.67Z" style="fill:#263238"></path><path d="M261,380.78c0,.22,1,.31,2,1s1.42,1.53,1.62,1.46,0-1.27-1.2-2.08S261,380.59,261,380.78Z" style="fill:#263238"></path><path d="M260,386.81c.2,0,.19-1.12-.66-2.1s-2-1.14-2-.95.73.63,1.42,1.44S259.82,386.85,260,386.81Z" style="fill:#263238"></path><path d="M263.84,372.59c.14.16,1-.4,2.19-.66s2.2-.15,2.26-.36-1-.69-2.43-.37S263.69,372.45,263.84,372.59Z" style="fill:#263238"></path><path d="M323.7,265.55c-1.13,0-72.08,4.12-77.45,5.25s-17.94,3.67-14.68,22c3.3,18.63,24,74.29,24.85,74.29s29.1-6.5,29.1-6.5L268,303.75s20.65.67,35.62.38S350.77,303,350.77,303s18.08-5.64,17.8-28.53Z" style="fill:#263238"></path><path d="M295.86,304.2a6.11,6.11,0,0,1-1.36.06h-3.7c-3.13,0-7.45-.12-12.22-.24s-9.09-.26-12.21-.39l-3.7-.17a6.45,6.45,0,0,1-1.35-.13,8.07,8.07,0,0,1,1.36-.06l3.7,0c3.13,0,7.44.12,12.21.24s9.09.26,12.21.38l3.7.17A9.1,9.1,0,0,1,295.86,304.2Z" style="fill:#455a64"></path><path d="M268,303.75s0,.07.08.22l.22.64c.19.61.45,1.44.77,2.49.69,2.19,1.66,5.31,2.85,9.13l9.57,30.1c1.55,5,3,9.82,4.27,14.24l.07.23-.24.06-20.94,4.58-6,1.28L257,367a3.75,3.75,0,0,1-.57.09A3.54,3.54,0,0,1,257,367l1.6-.4,6-1.41,20.9-4.75-.17.29c-1.29-4.41-2.74-9.22-4.3-14.22-3.67-11.77-7.1-22.4-9.43-30.14-1.17-3.87-2.08-7-2.7-9.19l-.69-2.51c-.06-.27-.12-.48-.16-.66S268,303.76,268,303.75Z" style="fill:#455a64"></path><path d="M281.05,194.23l-33.53-40.11s.19-8.76-.21-9.43a20.55,20.55,0,0,0-3-2.57l-12-5.72s-3,1.63-2.47,2.9c0,0-2.45,2.5-1.82,4.22,0,0-1.74,2.6-1.05,4.42l.45.78a2.85,2.85,0,0,0-.75,2.93c.49,1.94,4.94,8.34,4.94,8.34l6.69,4.68s27.78,45.35,31.91,47.42,8.82,3.73,13.91,2.22,34.9-12.9,34.9-12.9l1-25.33Z" style="fill:#ffbe9d"></path><polygon points="243.82 141.87 246.29 140.4 246.47 131.71 232.06 132.73 232.32 136.4 243.82 141.87" style="fill:#263238"></polygon><path d="M193.67,150.94l0-.08c-.84-1.93-2.93-10.71-4.21-16.25a91.59,91.59,0,0,1-1.67-9.45c-.74-5.94-1.85-15.51-1.62-17.63v-.09a2.7,2.7,0,0,1,4.17-1.9c3.31,2.2,10.44,6.62,15.78,7.88,4.74,1.11,24.67-1.47,37.62-3.34a11.17,11.17,0,0,1,12.72,9.85h0a11.16,11.16,0,0,1-9.63,12.29c-12.43,1.66-31.66,4.56-35.88,7.05-4.72,2.8-10.2,9.15-12.7,12.23A2.7,2.7,0,0,1,193.67,150.94Z" style="fill:#407BFF"></path><path d="M246.82,132.25A11.18,11.18,0,0,0,256.45,120h0a11.18,11.18,0,0,0-12.72-9.85l-3.39.45s-2.51,6.87-.39,13.51,3.86,8.56,3.86,8.56Z" style="fill:#455a64"></path><path d="M197.18,152.42s-.33-.58-.79-1.7-1-2.78-1.68-4.85a137.73,137.73,0,0,1-3.91-16.46c-.87-6.56-2-12.48-2.09-16.79a16.66,16.66,0,0,1,.54-5,6.85,6.85,0,0,1,.51-1.29,1.57,1.57,0,0,0,.18-.45s-.12.12-.29.39a5.92,5.92,0,0,0-.63,1.27,15.56,15.56,0,0,0-.75,5.12c0,4.4,1.06,10.32,1.93,16.89a117,117,0,0,0,4.1,16.5,41.9,41.9,0,0,0,1.87,4.81,9.23,9.23,0,0,0,.7,1.22A2,2,0,0,0,197.18,152.42Z" style="fill:#263238"></path><path d="M245.8,113.78c0,.19,2.13.32,4.41,1.5s3.66,2.81,3.8,2.69-1.08-2-3.52-3.23S245.77,113.63,245.8,113.78Z" style="fill:#263238"></path><path d="M247.05,127.6a5.9,5.9,0,0,0,3.85-1.29c1.92-1.32,2.71-3.1,2.56-3.15s-1.12,1.43-2.91,2.65S247,127.42,247.05,127.6Z" style="fill:#263238"></path><path d="M246.78,120.85a8.75,8.75,0,0,0,3.27-.14c1.78-.25,3.2-.58,3.17-.75s-1.48-.1-3.26.14A9.2,9.2,0,0,0,246.78,120.85Z" style="fill:#263238"></path><path d="M243.81,132.63c.08-.06-.68-1.12-1.6-3a26.19,26.19,0,0,1-1.36-3.36,29.61,29.61,0,0,1-1-4.33,29,29,0,0,1,0-8.07c.29-2.06.66-3.3.55-3.33a2.81,2.81,0,0,0-.35.84,17.52,17.52,0,0,0-.62,2.42,24.49,24.49,0,0,0-.14,8.23,25.76,25.76,0,0,0,1.08,4.42,22.75,22.75,0,0,0,1.52,3.38,15.8,15.8,0,0,0,1.36,2.1C243.56,132.41,243.77,132.65,243.81,132.63Z" style="fill:#263238"></path><path d="M207.39,117.75c0,.17,6.43-.56,14.31-1.63s14.25-2.06,14.23-2.23-6.43.56-14.31,1.63S207.37,117.58,207.39,117.75Z" style="fill:#fff"></path><path d="M194.9,112.14c-.08.15,1.43,1.1,3.37,2.13s3.58,1.73,3.66,1.58a13.42,13.42,0,0,0-3.38-2.13C196.61,112.7,195,112,194.9,112.14Z" style="fill:#fff"></path><polygon points="298.61 201.7 290.08 188.23 314.21 178.31 317.31 183.98 298.61 201.7" style="fill:#455a64"></polygon><path d="M235.32,246.62c.82-.21,43.61-27.84,47.07-30.28s17.61-18,17.61-18l14.11,16.09L298.23,229c-1.42,1.4-6.86,6.24-8.69,7L243,258.08Z" style="fill:#ffbe9d"></path><path d="M313.48,213.77l.34,27,.32,25.29,9.81-.48,46.91,9.49s-6.18-49.64-7.37-58.33a165.63,165.63,0,0,0-4.2-21c-2.66-8.9-6.77-25.69-24.44-31.73,0,0-9.77,3.7-14.61,6.34-4.55,2.47-20,23.83-20,23.83Z" style="fill:#455a64"></path><g style="opacity:0.30000000000000004"><path d="M313.54,218.15l.57-1.71,3.13,3.59s12.42-13.32,14.86-18.64a40.55,40.55,0,0,0,3.74-13.06,21.57,21.57,0,0,1-1.84,5.26c-1.94,4.09-5.48,10.21-13.43,18.59l-4.05,4.91-3-3.32Z"></path></g><polygon points="339.23 164.82 335.65 161.26 316.54 171.91 313.84 175.76 311.35 172.85 310.95 181.26 339.23 164.82" style="fill:#455a64"></polygon><path d="M299,197.39s17.37-21.81,18.87-23.27,9.75-5.9,16.3.84.59,19-.5,21.83-16.37,21.32-16.37,21.32Z" style="fill:#455a64"></path><path d="M334.13,175a4.65,4.65,0,0,1-.6-.48,9.58,9.58,0,0,0-1.79-1.22,10.53,10.53,0,0,0-3.22-1.09,13.07,13.07,0,0,0-4.5,0A14.71,14.71,0,0,0,318.9,174a10.64,10.64,0,0,0-2.21,2.06c-.7.79-1.41,1.62-2.13,2.47-2.89,3.43-6,7.26-9.25,11.28l-6.16,7.68v-.3l13,14.91,3.76,4.36,1,1.19a2.78,2.78,0,0,1,.32.42,3.12,3.12,0,0,1-.39-.37c-.26-.29-.61-.66-1.05-1.13L312,212.34l-13.17-14.8-.14-.15.13-.15,6.15-7.69c3.25-4,6.37-7.85,9.28-11.27.73-.85,1.45-1.67,2.16-2.47a11,11,0,0,1,2.32-2.11,14.82,14.82,0,0,1,5.27-1.85,13.33,13.33,0,0,1,4.61.05,10.57,10.57,0,0,1,3.27,1.2,8.15,8.15,0,0,1,1.75,1.31A3.79,3.79,0,0,1,334.13,175Z" style="fill:#263238"></path><path d="M283.12,216.25c-.1-.1,3.55-4.14,8.14-9s8.39-8.78,8.49-8.69-3.54,4.13-8.14,9S283.22,216.34,283.12,216.25Z" style="fill:#eb996e"></path><path d="M335.65,161.26s.43.29,1.08.89,1.57,1.47,2.65,2.51l.2.19-.24.15-3.59,2.22c-2.19,1.33-4.18,2.51-5.64,3.35a14.88,14.88,0,0,1-2.41,1.26,15.14,15.14,0,0,1,2.23-1.56c1.41-.91,3.38-2.14,5.57-3.47l3.62-2.17,0,.34c-1.05-1.07-1.93-2-2.53-2.64A6.12,6.12,0,0,1,335.65,161.26Z" style="fill:#263238"></path></g></svg>