<svg width="66" height="66" viewBox="0 0 66 66" fill="none" xmlns="http://www.w3.org/2000/svg">
<rect width="66" height="66" fill="#D5DDEA"/>
<path d="M55.2616 53.1866C53.9008 52.1259 52.2428 51.3621 50.444 50.9919L41.8687 49.2947C40.9693 49.125 40.3202 48.3304 40.3202 47.4047V45.4646C40.8715 44.7009 41.3916 43.6864 41.9352 42.6257C42.3575 41.8041 42.9949 40.566 43.3116 40.2459C45.0478 38.5256 46.7253 36.5931 47.2454 34.1014C47.7303 31.764 47.2532 30.5374 46.694 29.55C46.694 27.0853 46.6158 23.9996 46.0254 21.7547C45.955 18.7153 45.3958 17.0066 43.9881 15.51C42.9949 14.4493 41.5324 14.2024 40.3554 14.0057C39.894 13.9286 39.2566 13.8206 39.022 13.6971C36.9377 12.5863 34.877 12.0424 32.4174 12C27.2675 12.2083 20.9367 15.4406 18.8173 21.2031C18.1603 22.9581 18.2268 25.8394 18.2816 28.1537L18.2307 29.5461C17.7263 30.5181 17.2297 31.7524 17.7185 34.0976C18.2346 36.5931 19.9122 38.5294 21.6796 40.2729C21.969 40.566 22.622 41.8157 23.0522 42.6411C23.6035 43.698 24.1275 44.7086 24.6789 45.4684V47.4086C24.6789 48.3304 24.0258 49.125 23.1226 49.2986L14.5394 50.9957C12.7524 51.3699 11.0944 52.1259 9.73749 53.1866C9.31518 53.5221 9.04927 54.012 9.00626 54.5443C8.96325 55.0766 9.14312 55.5973 9.50678 55.9946C15.3488 62.3511 23.7287 66 32.4995 66C41.2704 66 49.6541 62.355 55.4923 55.9946C55.8559 55.5973 56.0397 55.0727 55.9928 54.5404C55.9498 54.0081 55.6839 53.5183 55.2616 53.1866Z" fill="#989FB0"/>
</svg>
